<?xml version="1.0" encoding="UTF-8" standalone="no"?>
<!-- Created with Inkscape (http://www.inkscape.org/) -->

<svg
   width="45.25919mm"
   height="10.355924mm"
   viewBox="0 0 45.25919 10.355924"
   version="1.1"
   id="svg5"
   inkscape:version="1.1 (c4e8f9e, 2021-05-24)"
   sodipodi:docname="logo.svg"
   xmlns:inkscape="http://www.inkscape.org/namespaces/inkscape"
   xmlns:sodipodi="http://sodipodi.sourceforge.net/DTD/sodipodi-0.dtd"
   xmlns:xlink="http://www.w3.org/1999/xlink"
   xmlns="http://www.w3.org/2000/svg"
   xmlns:svg="http://www.w3.org/2000/svg">
  <sodipodi:namedview
     id="namedview7"
     pagecolor="#ffffff"
     bordercolor="#666666"
     borderopacity="1.0"
     inkscape:pageshadow="2"
     inkscape:pageopacity="0.0"
     inkscape:pagecheckerboard="true"
     inkscape:document-units="mm"
     showgrid="false"
     inkscape:zoom="2.3810164"
     inkscape:cx="76.017958"
     inkscape:cy="70.34811"
     inkscape:window-width="1312"
     inkscape:window-height="997"
     inkscape:window-x="184"
     inkscape:window-y="25"
     inkscape:window-maximized="0"
     inkscape:current-layer="layer1" />
  <defs
     id="defs2">
    <linearGradient
       inkscape:collect="always"
       id="linearGradient12397">
      <stop
         style="stop-color:#d45500;stop-opacity:1;"
         offset="0"
         id="stop12393" />
      <stop
         style="stop-color:#1fdee5;stop-opacity:1"
         offset="1"
         id="stop12395" />
    </linearGradient>
    <linearGradient
       inkscape:collect="always"
       id="linearGradient12391">
      <stop
         style="stop-color:#d45500;stop-opacity:1;"
         offset="0"
         id="stop12387" />
      <stop
         style="stop-color:#1fdee5;stop-opacity:1"
         offset="1"
         id="stop12389" />
    </linearGradient>
    <linearGradient
       inkscape:collect="always"
       id="linearGradient12385">
      <stop
         style="stop-color:#d45500;stop-opacity:1;"
         offset="0"
         id="stop12381" />
      <stop
         style="stop-color:#1fdee5;stop-opacity:1"
         offset="1"
         id="stop12383" />
    </linearGradient>
    <linearGradient
       inkscape:collect="always"
       id="linearGradient11663">
      <stop
         style="stop-color:#d45500;stop-opacity:1;"
         offset="0"
         id="stop11659" />
      <stop
         style="stop-color:#1fdee5;stop-opacity:1"
         offset="1"
         id="stop11661" />
    </linearGradient>
    <linearGradient
       inkscape:collect="always"
       xlink:href="#linearGradient11663"
       id="linearGradient11587"
       x1="100.06209"
       y1="73.65657"
       x2="113.28562"
       y2="82.657455"
       gradientUnits="userSpaceOnUse" />
    <linearGradient
       inkscape:collect="always"
       xlink:href="#linearGradient12397"
       id="linearGradient11589"
       x1="100.06209"
       y1="73.65657"
       x2="113.28562"
       y2="82.657455"
       gradientUnits="userSpaceOnUse" />
    <linearGradient
       inkscape:collect="always"
       xlink:href="#linearGradient12391"
       id="linearGradient11591"
       x1="100.06209"
       y1="73.65657"
       x2="113.28562"
       y2="82.657455"
       gradientUnits="userSpaceOnUse" />
    <linearGradient
       inkscape:collect="always"
       xlink:href="#linearGradient12385"
       id="linearGradient11593"
       x1="100.06209"
       y1="73.65657"
       x2="113.28562"
       y2="82.657455"
       gradientUnits="userSpaceOnUse" />
  </defs>
  <g
     inkscape:label="Layer 1"
     inkscape:groupmode="layer"
     id="layer1"
     transform="translate(-69.281299,-72.545353)">
    <path
       d="m 72.8728,73.454856 3.224599,7.007302 h -1.173051 l -1.043861,-2.284091 h -2.940379 l -1.080034,2.284091 h -0.578775 l 3.302114,-7.007302 z m -1.731155,4.278795 h 2.526969 l -1.245398,-2.713004 z"
       style="font-size:10.5833px;line-height:1.25;font-family:'Telugu MN';-inkscape-font-specification:'Telugu MN, Normal';stroke-width:0.264583"
       id="path11508" />
    <path
       d="m 77.492761,73.705275 0.465515,-0.06037 -1.261367,6.72703 -0.465515,0.06037 z"
       style="font-size:10.5833px;line-height:1.25;font-family:'Telugu MN';-inkscape-font-specification:'Telugu MN, Normal';stroke-width:0.25191"
       id="path11510" />
    <path
       d="m 78.299922,73.609885 h 2.759513 q 0.547768,0 1.002519,0.124023 0.459919,0.118856 0.785479,0.341064 0.330729,0.222207 0.511596,0.532265 0.180866,0.310058 0.180866,0.682127 0,0.284219 -0.05684,0.506427 -0.05684,0.222208 -0.201538,0.41341 -0.144693,0.186035 -0.387572,0.356567 -0.237711,0.165364 -0.604612,0.341063 v 0.02067 q 0.366901,0.05684 0.661456,0.19637 0.294555,0.139526 0.50126,0.356567 0.211872,0.211872 0.32556,0.501259 0.113688,0.28422 0.113688,0.625283 0,0.387572 -0.170532,0.728636 -0.165364,0.335895 -0.480589,0.589109 -0.310058,0.248046 -0.754473,0.39274 -0.439249,0.144693 -0.987017,0.144693 h -3.198761 z m 1.152381,3.085073 h 1.467606 q 0.346231,0 0.614947,-0.09819 0.268717,-0.09819 0.454751,-0.268716 0.186035,-0.1757 0.279052,-0.41341 0.09819,-0.242879 0.09819,-0.521931 0,-0.299722 -0.113688,-0.5426 -0.113687,-0.248047 -0.356566,-0.423746 -0.237711,-0.175699 -0.60978,-0.268716 -0.366901,-0.09302 -0.883664,-0.09302 h -0.950843 z m 0,3.26594 h 1.245398 q 0.50126,0 0.868161,-0.09302 0.372069,-0.09819 0.60978,-0.268716 0.242878,-0.1757 0.356566,-0.418578 0.118856,-0.242879 0.118856,-0.532266 0,-0.32556 -0.103353,-0.604612 Q 82.444359,77.764657 82.206648,77.56312 81.974105,77.356415 81.5917,77.237559 81.214463,77.118704 80.661527,77.118704 h -1.209224 z"
       style="font-size:10.5833px;line-height:1.25;font-family:'Telugu MN';-inkscape-font-specification:'Telugu MN, Normal';stroke-width:0.264583"
       id="path11512" />
    <path
       d="m 85.389905,75.372046 0.738971,-0.299723 h 0.30489 v 5.389835 h -1.043861 z m -0.08268,-2.227247 q 0,-0.124023 0.04651,-0.232544 0.04651,-0.10852 0.129191,-0.191202 0.08268,-0.08268 0.191202,-0.12919 0.10852,-0.04651 0.232543,-0.04651 0.124023,0 0.232543,0.04651 0.10852,0.04651 0.191202,0.12919 0.08268,0.08268 0.129191,0.191202 0.04651,0.108521 0.04651,0.232544 0,0.124023 -0.04651,0.232543 -0.04651,0.10852 -0.129191,0.191202 -0.08268,0.08268 -0.191202,0.129191 -0.10852,0.04651 -0.232543,0.04651 -0.124023,0 -0.232543,-0.04651 -0.10852,-0.04651 -0.191202,-0.129191 -0.08268,-0.08268 -0.129191,-0.191202 -0.04651,-0.10852 -0.04651,-0.232543 z"
       style="font-size:10.5833px;line-height:1.25;font-family:'Telugu MN';-inkscape-font-specification:'Telugu MN, Normal';stroke-width:0.264583"
       id="path11514" />
    <path
       d="m 89.120931,75.072323 h 0.299723 v 1.095537 q 0.201537,-0.21704 0.454751,-0.41341 0.253214,-0.201537 0.52193,-0.351398 0.268717,-0.155029 0.537433,-0.242879 0.268717,-0.08785 0.511595,-0.08785 0.232544,0 0.470254,0.08268 0.242879,0.08268 0.444416,0.232543 0.206705,0.149861 0.351399,0.356566 0.149861,0.201537 0.19637,0.444416 0.12919,-0.232543 0.356566,-0.434081 0.232543,-0.206705 0.511595,-0.356566 0.279052,-0.149861 0.58911,-0.237711 0.315225,-0.08785 0.614947,-0.08785 0.299722,0 0.558104,0.134359 0.263549,0.12919 0.459919,0.356566 0.196369,0.222208 0.310057,0.527098 0.113688,0.299722 0.113688,0.640786 v 3.731026 H 95.37376 v -3.586333 q 0,-0.222208 -0.07752,-0.418578 -0.07235,-0.201537 -0.201537,-0.351398 -0.129191,-0.149861 -0.30489,-0.237711 -0.170532,-0.08785 -0.361734,-0.08785 -0.21704,0 -0.444416,0.06201 -0.222208,0.05684 -0.423745,0.160196 -0.201538,0.103353 -0.366902,0.242879 -0.165364,0.134358 -0.263549,0.289387 v 3.927396 H 91.880439 V 76.87582 q 0,-0.222208 -0.07751,-0.418578 -0.07752,-0.201537 -0.206705,-0.351398 -0.129191,-0.149861 -0.30489,-0.237711 -0.1757,-0.08785 -0.366902,-0.08785 -0.201537,0 -0.418578,0.06201 -0.211872,0.06201 -0.418577,0.165364 -0.201538,0.103352 -0.377237,0.242878 -0.1757,0.134359 -0.289387,0.28422 v 3.927396 h -1.054196 v -5.09528 z"
       style="font-size:10.5833px;line-height:1.25;font-family:'System Font';-inkscape-font-specification:'System Font';fill:url(#linearGradient11587);stroke-width:0.264583;fill-opacity:1"
       id="path11516" />
    <path
       d="m 101.58008,80.462158 q -0.2067,-0.103352 -0.3514,-0.289387 -0.13952,-0.191202 -0.13952,-0.434081 -0.18604,0.139526 -0.36691,0.289388 -0.17569,0.149861 -0.38757,0.273884 -0.2067,0.118855 -0.465084,0.19637 -0.253214,0.07751 -0.589109,0.07751 -0.310058,0 -0.563272,-0.103353 -0.248046,-0.09818 -0.423745,-0.273884 -0.170532,-0.175699 -0.268717,-0.418578 -0.09302,-0.242878 -0.09302,-0.52193 0,-0.341063 0.134358,-0.614947 0.134359,-0.273885 0.366902,-0.485757 0.237711,-0.217041 0.547768,-0.382405 0.310058,-0.170531 0.661457,-0.299722 0.351398,-0.134358 0.723472,-0.237711 0.37207,-0.103352 0.72347,-0.191202 v -0.330728 q 0,-0.361734 -0.0517,-0.60978 -0.0517,-0.248046 -0.1602,-0.397907 -0.10852,-0.155029 -0.27905,-0.217041 -0.16536,-0.06718 -0.39791,-0.06718 -0.222207,0 -0.408241,0.08785 -0.186035,0.08785 -0.330728,0.237711 -0.139526,0.144693 -0.232544,0.346231 -0.08785,0.196369 -0.118855,0.418577 h -0.961179 q 0.04134,-0.341063 0.232544,-0.60978 0.196369,-0.268716 0.490924,-0.449583 0.294555,-0.186035 0.666624,-0.28422 0.377237,-0.09819 0.780315,-0.09819 0.51676,0 0.86816,0.103353 0.3514,0.09819 0.56327,0.279052 0.21187,0.180867 0.29972,0.444416 0.093,0.258381 0.093,0.573606 v 3.26594 q 0,0.242879 0.13953,0.434081 0.14469,0.186035 0.3514,0.289387 z m -0.49092,-3.079905 q -0.22738,0.07235 -0.47026,0.165364 -0.24288,0.09302 -0.47542,0.211872 -0.232543,0.113688 -0.444416,0.248046 -0.211872,0.134359 -0.372069,0.289388 -0.160196,0.155028 -0.253213,0.32556 -0.09302,0.170532 -0.09302,0.356566 0,0.19637 0.07235,0.372069 0.07235,0.170532 0.191202,0.30489 0.118856,0.129191 0.273884,0.206705 0.155029,0.07235 0.320393,0.07235 0.175699,0 0.335899,-0.04651 0.16019,-0.04651 0.31005,-0.124023 0.14986,-0.08268 0.29973,-0.186035 0.14986,-0.103353 0.30489,-0.222208 z"
       style="font-size:10.5833px;line-height:1.25;font-family:'System Font';-inkscape-font-specification:'System Font';fill:url(#linearGradient11589);stroke-width:0.264583;fill-opacity:1"
       id="path11518" />
    <path
       d="m 108.83026,75.44956 v 0.444416 h -1.00252 q 0.14986,0.211873 0.24288,0.485757 0.0982,0.268717 0.0982,0.532266 0,0.41341 -0.18086,0.749305 -0.18087,0.335896 -0.50643,0.578775 -0.32039,0.242878 -0.76998,0.377236 -0.44958,0.129191 -0.99218,0.129191 -0.20154,0 -0.41341,-0.03101 -0.20671,-0.03101 -0.36174,-0.08268 -0.14986,0.124023 -0.25321,0.289387 -0.10335,0.160197 -0.10335,0.325561 0,0.160196 0.17053,0.253214 0.1757,0.09302 0.49609,0.10852 l 1.95337,0.08785 q 0.47025,0.02067 0.78031,0.113688 0.31522,0.08785 0.50126,0.242879 0.18603,0.149861 0.26355,0.356566 0.0775,0.206705 0.0775,0.465086 0,0.459919 -0.21704,0.831988 -0.21187,0.377237 -0.61495,0.640786 -0.40307,0.263549 -0.98701,0.408242 -0.57878,0.144694 -1.31258,0.144694 -0.65629,0 -1.14721,-0.07751 -0.49093,-0.07751 -0.81649,-0.222208 -0.32556,-0.139526 -0.48576,-0.341064 -0.16019,-0.196369 -0.16019,-0.444416 0,-0.21704 0.10852,-0.418577 0.10852,-0.19637 0.27905,-0.382405 0.17053,-0.180867 0.37724,-0.351398 0.2067,-0.170532 0.40824,-0.325561 -0.1447,-0.04651 -0.27389,-0.10852 -0.12402,-0.06718 -0.21704,-0.149861 -0.093,-0.08268 -0.14469,-0.175699 -0.0517,-0.09819 -0.0517,-0.206706 0,-0.160196 0.0827,-0.330728 0.0879,-0.175699 0.23254,-0.330728 0.14986,-0.160196 0.34106,-0.289387 0.19637,-0.134358 0.41858,-0.211873 -0.53227,-0.227375 -0.83716,-0.63045 -0.29972,-0.408243 -0.29972,-0.93534 0,-0.387573 0.1757,-0.733803 0.18087,-0.346231 0.49609,-0.604613 0.31523,-0.258381 0.73381,-0.408242 0.42374,-0.149862 0.91467,-0.149862 0.23771,0 0.46508,0.03101 0.23255,0.03101 0.42892,0.08268 0.20153,0.05168 0.35139,0.118856 0.15503,0.06718 0.24288,0.144693 z m -4.24262,4.971257 q -0.11886,0.08785 -0.20671,0.19637 -0.0879,0.10852 -0.14986,0.227376 -0.062,0.118855 -0.093,0.23771 -0.031,0.124023 -0.031,0.232544 0,0.175699 0.12402,0.335895 0.12403,0.160197 0.37207,0.28422 0.24805,0.124023 0.62012,0.19637 0.37723,0.07235 0.87333,0.07235 0.52709,0 0.9405,-0.08268 0.41858,-0.08268 0.70797,-0.222208 0.29455,-0.134358 0.44441,-0.30489 0.15503,-0.165364 0.15503,-0.335895 0,-0.1757 -0.093,-0.30489 -0.0879,-0.129191 -0.25839,-0.211873 -0.17053,-0.08268 -0.41341,-0.124023 -0.24287,-0.04134 -0.54776,-0.04134 -0.38241,0 -0.76998,-0.02067 -0.38757,-0.0155 -0.72347,-0.04134 -0.33589,-0.02067 -0.58911,-0.05168 -0.25321,-0.02584 -0.36173,-0.04134 z m 1.30741,-1.948195 q 0.22221,0 0.42891,-0.09819 0.20671,-0.103353 0.36174,-0.279052 0.16019,-0.175699 0.25321,-0.408242 0.093,-0.237711 0.093,-0.511595 0,-0.387572 -0.10852,-0.718301 -0.10336,-0.335895 -0.28422,-0.578774 -0.18087,-0.248046 -0.42375,-0.387572 -0.24288,-0.139526 -0.51159,-0.139526 -0.26355,0 -0.45992,0.10852 -0.1912,0.108521 -0.31523,0.30489 -0.12402,0.191203 -0.18603,0.454752 -0.0568,0.258381 -0.0568,0.558103 0,0.356567 0.0878,0.666624 0.0879,0.310058 0.24805,0.542601 0.1602,0.227376 0.3824,0.356566 0.22221,0.129191 0.49093,0.129191 z"
       style="font-size:10.5833px;line-height:1.25;font-family:'System Font';-inkscape-font-specification:'System Font';fill:url(#linearGradient11591);stroke-width:0.264583;fill-opacity:1"
       id="path11520" />
    <path
       d="m 112.03936,80.575846 q -0.53744,0 -1.01286,-0.201537 -0.47025,-0.201538 -0.82165,-0.547769 -0.3514,-0.346231 -0.5581,-0.811317 -0.20154,-0.470254 -0.20154,-0.997352 0,-0.635618 0.18603,-1.173052 0.18604,-0.5426 0.5271,-0.93534 0.34106,-0.39274 0.81649,-0.614948 0.48058,-0.222208 1.06969,-0.222208 0.51677,0 0.95085,0.186035 0.43408,0.180867 0.74414,0.490925 0.31522,0.30489 0.48575,0.707964 0.1757,0.403075 0.1757,0.842324 h -3.9429 q 0,0.532265 0.13436,0.987016 0.13953,0.454751 0.38757,0.78548 0.24805,0.330728 0.58911,0.516762 0.34107,0.186035 0.74931,0.186035 0.34106,0 0.65629,-0.10852 0.31522,-0.113688 0.56844,-0.294555 0.25838,-0.180867 0.43924,-0.41341 0.18087,-0.232543 0.25322,-0.480589 l 0.30489,0.134358 q -0.11369,0.408242 -0.3669,0.764809 -0.25322,0.356566 -0.59428,0.625282 -0.3359,0.263549 -0.7338,0.418578 -0.39791,0.155029 -0.80615,0.155029 z m 1.04386,-3.700021 q 0,-0.299722 -0.10852,-0.558103 -0.10336,-0.258382 -0.28939,-0.444416 -0.18603,-0.191203 -0.43408,-0.299723 -0.24805,-0.10852 -0.53227,-0.10852 -0.23771,0 -0.45475,0.10852 -0.21704,0.103353 -0.38757,0.294555 -0.17053,0.186035 -0.28422,0.444416 -0.10852,0.258381 -0.12919,0.558104 z"
       style="font-size:10.5833px;line-height:1.25;font-family:'System Font';-inkscape-font-specification:'System Font';fill:url(#linearGradient11593);stroke-width:0.264583;fill-opacity:1"
       id="path11522" />
    <circle
       id="path12796"
       style="fill:#1fdee5;stroke:#000000;stroke-width:0.264583"
       cx="98.395264"
       cy="72.323112"
       r="0" />
    <circle
       id="path12798"
       style="fill:#1fdee5;stroke:#000000;stroke-width:0.264583"
       cx="98.395264"
       cy="72.323112"
       r="0" />
  </g>
</svg>
